<svg xmlns="http://www.w3.org/2000/svg" version="1.1" xmlns:xlink="http://www.w3.org/1999/xlink" xmlns:svgjs="http://svgjs.com/svgjs" width="1440" height="560" preserveAspectRatio="none" viewBox="0 0 1440 560"><g mask="url(&quot;#SvgjsMask1022&quot;)" fill="none"><rect width="1440" height="560" x="0" y="0" fill="rgba(241, 241, 241, 1)"></rect><path d="M639.66 110.44 a180.96 180.96 0 1 0 361.92 0 a180.96 180.96 0 1 0 -361.92 0z" fill="rgba(28, 83, 142, 0.4)" class="triangle-float1"></path><path d="M305.17076240775367 344.25152382622025L196.5324010697391 399.6055337193103 251.88641096282916 508.24389505732483 360.5247723008437 452.8898851642348z" fill="rgba(28, 83, 142, 0.4)" class="triangle-float2"></path><path d="M451.163200912775 268.3409999433985L482.5602764350287 324.9828235614077 551.8244741009156 249.5662984690225z" fill="rgba(28, 83, 142, 0.4)" class="triangle-float1"></path><path d="M956.5401236092615 572.2413956583335L968.48268605351 474.97702987465505 871.2183202698316 463.03446743040655 859.275757825583 560.2988332140851z" fill="rgba(28, 83, 142, 0.4)" class="triangle-float3"></path><path d="M102.11370057880613 194.2101555480628L-44.379472845929214 244.65180031663095 152.55534534737427 340.70332897279815z" fill="rgba(28, 83, 142, 0.4)" class="triangle-float3"></path><path d="M1262.65 37.52 a139.02 139.02 0 1 0 278.04 0 a139.02 139.02 0 1 0 -278.04 0z" fill="rgba(28, 83, 142, 0.4)" class="triangle-float3"></path></g><defs><mask id="SvgjsMask1022"><rect width="1440" height="560" fill="#ffffff"></rect></mask><style>
            @keyframes float1 {
                0%{transform: translate(0, 0)}
                50%{transform: translate(-10px, 0)}
                100%{transform: translate(0, 0)}
            }

            .triangle-float1 {
                animation: float1 5s infinite;
            }

            @keyframes float2 {
                0%{transform: translate(0, 0)}
                50%{transform: translate(-5px, -5px)}
                100%{transform: translate(0, 0)}
            }

            .triangle-float2 {
                animation: float2 4s infinite;
            }

            @keyframes float3 {
                0%{transform: translate(0, 0)}
                50%{transform: translate(0, -10px)}
                100%{transform: translate(0, 0)}
            }

            .triangle-float3 {
                animation: float3 6s infinite;
            }
        </style></defs></svg>